<svg xmlns="http://www.w3.org/2000/svg" version="1.1" xmlns:xlink="http://www.w3.org/1999/xlink" xmlns:svgjs="http://svgjs.dev/svgjs" width="1000" height="1125" viewBox="0 0 1000 1125"><g transform="matrix(1,0,0,1,1.7053025658242404e-13,0)"><svg viewBox="0 0 320 360" data-background-color="#ffffff" preserveAspectRatio="xMidYMid meet" height="1125" width="1000" xmlns="http://www.w3.org/2000/svg" xmlns:xlink="http://www.w3.org/1999/xlink"><g id="tight-bounds" transform="matrix(1,0,0,1,0,0)"><svg viewBox="0 0 320 360" height="360" width="320"><g><svg></svg></g><g><svg viewBox="0 0 320 360" height="360" width="320"><g><path xmlns="http://www.w3.org/2000/svg" d="M20.961 227.22l3.726 4.658-1.863-6.056c-0.466-2.795-3.726 0.466-1.863 1.398M25.153 224.425c1.397 2.329 2.795 4.658 2.795 6.987 0 3.261 2.795 4.658 5.123 5.589-3.261-3.726-5.124-13.974-7.918-12.576M204.017 26.929c7.918 0 15.371-0.932 23.756 0.931 20.495 5.124 37.729 15.371 49.374 29.811l32.606 52.169c1.397 13.042 4.192 27.482 3.726 43.319 3.261 0 2.795-4.658 6.521-5.59-3.726 9.316-5.59 20.961-6.521 34.469-2.329-7.453 0-18.632 0.466-24.687-3.261 5.124-5.124 1.397-5.124-0.932 0.466-3.726-1.397-3.261-2.795-4.658-5.124-4.658-8.384-9.782-12.11-17.7 2.329-6.055 2.795-14.905-4.658-19.563-2.329-1.397-5.124-3.726-6.521-7.453-1.863-5.124-5.124-11.179-4.193-19.097 0.466-2.329-6.987 5.124-11.179 1.863-18.166-12.576-36.332-27.016-58.224-39.127-11.645 0-20.029-4.192-24.221-9.316-3.726-4.658-0.932-10.713 4.658-11.179 3.261 0 6.987-0.932 9.782 0.932 0.466-1.863 2.329-4.192 4.657-4.192M157.904 16.215l0.932 0.466c4.658 0.932 6.987 7.453 12.11 5.124 0 3.261 0.466 6.521-0.466 8.85-1.397 3.726-5.59 3.726-8.85 3.726-31.208-1.863-49.374 11.179-68.471 22.358-5.124 3.261-10.713 5.59-14.906 9.782-20.029 18.632-41.921 35.866-47.045 70.335l-4.192 38.195c-0.466 4.192-5.124 8.384-4.192 13.508l3.26 22.824c-3.261-3.261-5.124 0.932-4.192 2.795 0.466 1.397 2.329 6.055 5.124 1.863 3.726 6.987 7.453 20.495 12.576 26.55 15.837 18.632 36.332 35.4 53.101 52.169 4.192-0.932 7.453-0.932 8.384-3.727 1.397 2.795-1.397 5.59-3.726 6.056 7.453 4.658 15.837 8.85 27.016 9.781 14.44 0.932 27.948 3.261 40.524 6.522 6.521-1.863 13.042-2.795 20.029-3.261 2.329 0 3.726-3.726 6.521-4.658l0.466-4.658c2.795 4.192 2.329-1.397 0.466-4.192 3.261 2.795 4.192 5.124 5.589 6.987 0-1.397 3.726-6.521 3.727-0.466l0.931-6.055c1.397-0.932 1.863 5.124 3.261 0.931 1.397-4.192 4.192-0.932 6.987-2.329-0.932 1.863-0.466 5.59 2.794 3.261l3.727-3.261c2.329 5.59 6.055 3.261 7.918 2.329 20.495-13.042 40.99-28.413 60.553-43.784l-0.466 6.055 2.329-7.453c2.329 2.329 4.192 0.466 5.124-0.931 2.795-4.658 6.521-9.316 12.577-13.508-7.453 20.029-16.303 35.866-27.482 48.908l-4.658 5.59c0 3.261-0.932 7.453-4.658 7.918-1.863 0.466-5.59-0.932-8.384 1.863-1.397 1.863 3.261 5.59-0.466 2.795-3.261-2.329-6.521 0-10.248 0.932-2.795 0.932 1.863 3.726 2.795 5.589 0.932 1.863 1.863 3.726 1.398 6.056l-5.124-5.59c-6.055 3.261-9.782 9.316-14.906 13.974-2.329 1.863-1.397 5.124-1.397 7.918-3.261 0-6.987-0.932-8.85 0.932-1.397 1.863-0.932 4.658-0.932 7.453-4.658-0.466-5.124-7.453-9.315-6.056-4.192 0.932-8.85 1.397-12.577 3.727 2.795 5.59-4.658 2.329-3.726 3.26-6.987-4.192-13.042-7.453-20.495-4.658-15.837-5.124-35.4-2.795-49.84-0.931 0-2.329 0.466-4.658-0.466-5.124-0.932 2.329-3.726 1.397-3.26 1.397-8.85-6.055-17.7-9.782-27.016-14.905-8.384 0.932-16.303-3.261-18.632-5.59-6.521-6.055-13.974-2.795-20.029-4.192-13.042-3.261-17.7-16.769-19.098-26.084-0.932-4.658-4.658-6.521-6.055-6.056-6.055-19.563-15.371-37.263-22.824-55.429-1.863-4.658-1.397-9.316-1.397-14.44 2.329 0.932 4.658 0.466 4.192-2.794-2.329-15.371-7.918-27.016-13.974-38.195 3.261-15.837 3.726-34.469 11.179-48.443 6.521-12.576 18.632-19.098 27.016-29.811 2.795-3.726 2.795-8.85 5.59-12.11 9.316-9.316 18.632-19.098 28.879-27.482 4.658-3.726 10.247 0 17.234-1.397 2.329-8.384 11.645-15.837 20.495-13.508 3.726 0.932 11.179-8.85 13.508-9.782 3.726-1.397 1.863 3.726 1.863 6.987 8.85-6.987 20.961-10.713 32.14-14.906" fill="#ea3c12" fill-rule="nonzero" stroke="none" stroke-width="1" stroke-linecap="butt" stroke-linejoin="miter" stroke-miterlimit="10" stroke-dasharray="" stroke-dashoffset="0" font-family="none" font-weight="none" font-size="none" text-anchor="none" style="mix-blend-mode: normal" data-fill-palette-color="tertiary"></path></g><g transform="matrix(1,0,0,1,64,120.69409660107334)"><svg viewBox="0 0 192 118.6118067978533" height="118.6118067978533" width="192"><g><svg viewBox="0 0 192 118.6118067978533" height="118.6118067978533" width="192"><g><svg viewBox="0 0 192.00000000000003 118.61180679785332" height="118.6118067978533" width="192"><g><svg viewBox="0 0 192.00000000000003 118.61180679785332" height="118.61180679785332" width="192.00000000000003"><g><svg viewBox="0 0 192.00000000000003 118.61180679785332" height="118.61180679785332" width="192.00000000000003"><g><svg viewBox="0 0 192.00000000000003 118.61180679785332" height="118.61180679785332" width="192.00000000000003"><g transform="matrix(1,0,0,1,0,0)"><svg width="192.00000000000003" viewBox="-3.1500000953674316 -51.25 83.8499984741211 51.79999923706055" height="118.61180679785332" data-palette-color="#ea3c12"><path d="M39.95-5.45Q40.15-4.95 40.15-4.5L40.15-4.5Q40.15-3.35 39.1-2.23 38.05-1.1 36.58-0.4 35.1 0.3 33.95 0.3L33.95 0.3Q31.35 0.3 30.18-2.88 29-6.05 28.35-10.6L28.35-10.6Q28.2-11.65 27.8-11.98 27.4-12.3 26.35-12.3L26.35-12.3 19.45-12.25Q17.95-12.25 15.75-12.35L15.75-12.35 15.15-11.4Q12.55-7.2 10.83-4.88 9.1-2.55 6.95-1 4.8 0.55 2.15 0.55L2.15 0.55Q0.3 0.55-0.88-0.15-2.05-0.85-2.6-1.85-3.15-2.85-3.15-3.75L-3.15-3.75Q-3.15-4.7-2.65-5.48-2.15-6.25-1.5-6.6L-1.5-6.6Q-1.5-4.45-0.48-3.13 0.55-1.8 2.5-1.8L2.5-1.8Q5.2-1.8 7.65-4.42 10.1-7.05 13.5-12.55L13.5-12.55Q10.85-12.85 10.7-13.55L10.7-13.55Q10.6-13.8 10.83-14.4 11.05-15 11.35-15.3L11.35-15.3Q12.1-15 14.8-14.65L14.8-14.65Q15.4-15.7 16.4-17.3L16.4-17.3Q25-31.55 27.5-35.5L27.5-35.5Q28.05-36.4 28.55-36.7 29.05-37 29.65-37L29.65-37Q30.45-37 31.3-36.75L31.3-36.75Q30.25-34.9 30.15-30.5L30.15-30.5 30.1-28.05Q30.1-22.95 30.5-16.7L30.5-16.7Q30.95-9.6 31.88-5.98 32.8-2.35 34.95-2.35L34.95-2.35Q36-2.35 37.38-3.23 38.75-4.1 39.95-5.45L39.95-5.45ZM22.85-14.15Q24.2-14.15 27.95-14.3L27.95-14.3Q27.85-18 27.78-22.48 27.7-26.95 27.65-30.25L27.65-30.25 27.65-31.9Q21.9-22.25 17.05-14.4L17.05-14.4Q20.3-14.15 22.85-14.15L22.85-14.15ZM64.7-14Q65.2-14 65.5-13.53 65.8-13.05 65.8-12.35L65.8-12.35Q65.8-11.45 65.3-10.45L65.3-10.45Q63.9-7.5 61.3-5.03 58.7-2.55 55.67-1.1 52.65 0.35 50.05 0.35L50.05 0.35Q44.75 0.35 44.75-5.8L44.75-5.8Q44.75-10.1 47.1-19.63 49.45-29.15 53.9-44.9L53.9-44.9Q54.85-48.15 55.97-49.7 57.1-51.25 58.55-51.25L58.55-51.25Q59.6-51.25 60.57-50.53 61.55-49.8 62.2-48.3 62.85-46.8 62.85-44.6L62.85-44.6Q62.85-41.05 61.17-35.6 59.5-30.15 56.15-24.1 52.8-18.05 48.1-12.9L48.1-12.9Q47.25-8.5 47.25-6.35L47.25-6.35Q47.25-3.95 48.22-2.93 49.2-1.9 50.95-1.9L50.95-1.9Q53.4-1.9 56.17-3.55 58.95-5.2 61.25-8 63.55-10.8 64.7-14L64.7-14ZM55.2-41.75Q51-26.65 48.85-16.7L48.85-16.7Q52.55-21.35 55.22-26.85 57.9-32.35 59.22-37.15 60.55-41.95 60.55-44.7L60.55-44.7Q60.55-46.25 60.1-47.38 59.65-48.5 58.6-48.5L58.6-48.5Q58-48.5 57.17-47.25 56.35-46 55.2-41.75L55.2-41.75ZM67.45 0.35Q65.7 0.35 64.32-0.83 62.95-2 62.95-4.3L62.95-4.3Q63.7-6.7 65.55-14.95L65.55-14.95Q66.45-19 66.64-19.8L66.64-19.8Q67.3-20.9 68.45-20.9L68.45-20.9Q69.2-20.9 69.2-20.4L69.2-20.4Q68.84-19.15 68.22-16.43 67.59-13.7 67.25-12.15L67.25-12.15Q65.89-5.95 65.39-4.2L65.39-4.2Q65.39-3.05 66.07-2.43 66.75-1.8 67.84-1.8L67.84-1.8Q70.34-1.8 72.87-3.58 75.4-5.35 77.32-7.7 79.25-10.05 80.2-11.75L80.2-11.75Q80.5-11.65 80.59-11.43 80.7-11.2 80.7-10.65L80.7-10.65Q80.7-9.9 80.2-9.1L80.2-9.1Q77.5-4.85 74.15-2.25 70.8 0.35 67.45 0.35L67.45 0.35ZM69.75-27.15Q69.05-27.15 68.65-27.63 68.25-28.1 68.25-28.85L68.25-28.85Q68.25-29.85 68.9-30.68 69.55-31.5 70.55-31.5L70.55-31.5Q71.34-31.5 71.72-31 72.09-30.5 72.09-29.8L72.09-29.8Q72.09-28.8 71.42-27.98 70.75-27.15 69.75-27.15L69.75-27.15Z" opacity="1" transform="matrix(1,0,0,1,0,0)" fill="#ea3c12" class="undefined-text-0" data-fill-palette-color="primary" id="text-0"></path></svg></g></svg></g></svg></g></svg></g><g></g></svg></g></svg></g></svg></g></svg></g><defs></defs></svg><rect width="320" height="360" fill="none" stroke="none" visibility="hidden"></rect></g></svg></g></svg>